<?xml version="1.0" encoding="iso-8859-1"?>
<!-- Generator: Adobe Illustrator 18.0.0, SVG Export Plug-In . SVG Version: 6.00 Build 0)  -->
<!DOCTYPE svg PUBLIC "-//W3C//DTD SVG 1.1//EN" "http://www.w3.org/Graphics/SVG/1.1/DTD/svg11.dtd">
<svg version="1.1" id="Capa_1" xmlns="http://www.w3.org/2000/svg" xmlns:xlink="http://www.w3.org/1999/xlink" x="0px" y="0px"
	 viewBox="0 0 74.4 74.4" style="enable-background:new 0 0 74.4 74.4;" xml:space="preserve">
<g>
	<g>
		<g>
			<g>
				<path style="fill:#FFC847;" d="M18.149,28.569c-0.394,0-0.779-0.193-1.009-0.549L0.23,1.851c-0.307-0.476-0.24-1.1,0.159-1.5
					c0.4-0.4,1.024-0.466,1.5-0.159l26.169,16.91c0.557,0.359,0.716,1.102,0.357,1.659c-0.359,0.558-1.104,0.716-1.659,0.356
					L5.276,5.238l13.88,21.479c0.359,0.557,0.2,1.3-0.356,1.659C18.598,28.507,18.372,28.569,18.149,28.569z"/>
			</g>
			<g>
				<path style="fill:#FFC847;" d="M56.252,28.569c-0.224,0-0.449-0.063-0.65-0.192c-0.557-0.359-0.716-1.102-0.356-1.659
					L69.124,5.238l-21.479,13.88c-0.555,0.359-1.3,0.201-1.659-0.356c-0.359-0.557-0.2-1.3,0.356-1.659l26.169-16.91
					c0.476-0.306,1.101-0.24,1.5,0.159c0.399,0.4,0.466,1.024,0.159,1.5L57.261,28.02C57.032,28.376,56.646,28.569,56.252,28.569z"
					/>
			</g>
		</g>
		<g>
			<g>
				<path style="fill:#FFC847;" d="M1.238,74.4c-0.309,0-0.617-0.12-0.849-0.352c-0.399-0.4-0.466-1.024-0.159-1.5L17.14,46.38
					c0.359-0.558,1.104-0.715,1.659-0.356c0.557,0.359,0.716,1.103,0.356,1.659l-13.88,21.48l21.479-13.88
					c0.556-0.358,1.3-0.2,1.659,0.356c0.359,0.557,0.2,1.3-0.357,1.659L1.889,74.208C1.689,74.337,1.463,74.4,1.238,74.4z"/>
			</g>
			<g>
				<path style="fill:#FFC847;" d="M73.162,74.4c-0.226,0-0.451-0.063-0.651-0.192l-26.169-16.91
					c-0.557-0.359-0.716-1.103-0.356-1.659c0.359-0.557,1.104-0.715,1.659-0.356l21.479,13.88l-13.879-21.48
					c-0.359-0.557-0.2-1.3,0.356-1.659c0.555-0.358,1.3-0.201,1.659,0.356L74.17,72.549c0.307,0.476,0.24,1.1-0.159,1.5
					C73.78,74.28,73.472,74.4,73.162,74.4z"/>
			</g>
		</g>
	</g>
	<g>
		<path style="fill:#FFC847;" d="M37.201,70.787c-0.527,0-0.993-0.345-1.147-0.849l-7.401-24.189l-24.19-7.401
			c-0.504-0.154-0.849-0.62-0.849-1.147c0-0.527,0.345-0.993,0.849-1.147l24.19-7.401l7.401-24.189
			c0.154-0.504,0.62-0.849,1.147-0.849c0.527,0,0.993,0.345,1.148,0.849l7.401,24.189l24.189,7.401
			c0.504,0.154,0.849,0.62,0.849,1.147c0,0.527-0.345,0.993-0.849,1.147l-24.189,7.401l-7.401,24.189
			C38.194,70.442,37.728,70.787,37.201,70.787z M8.914,37.2l21.05,6.44c0.381,0.116,0.68,0.415,0.796,0.796l6.44,21.049
			l6.441-21.049c0.116-0.381,0.415-0.68,0.796-0.796l21.049-6.44L44.437,30.76c-0.381-0.116-0.68-0.415-0.796-0.796L37.201,8.915
			l-6.44,21.049c-0.116,0.381-0.415,0.68-0.796,0.796L8.914,37.2z"/>
	</g>
</g>
<g>
</g>
<g>
</g>
<g>
</g>
<g>
</g>
<g>
</g>
<g>
</g>
<g>
</g>
<g>
</g>
<g>
</g>
<g>
</g>
<g>
</g>
<g>
</g>
<g>
</g>
<g>
</g>
<g>
</g>
</svg>
